<?xml version="1.0" encoding="utf-8"?>
<!-- Generator: Adobe Illustrator 22.0.0, SVG Export Plug-In . SVG Version: 6.00 Build 0)  -->
<svg version="1.1" id="图层_1" xmlns="http://www.w3.org/2000/svg" xmlns:xlink="http://www.w3.org/1999/xlink" x="0px" y="0px"
	 viewBox="0 0 37.9 37.9" style="enable-background:new 0 0 37.9 37.9;" xml:space="preserve">
<style type="text/css">
	.st0{fill:#6DD667;}
</style>
<path class="st0" d="M12.9,24.9c0,0.5,0.4,1,1,1h1v3.5c0,0.8,0.7,1.5,1.5,1.5c0.8,0,1.5-0.7,1.5-1.5v-3.5h2v3.5
	c0,0.8,0.7,1.5,1.5,1.5s1.5-0.7,1.5-1.5v-3.5h1c0.5,0,1-0.5,1-1v-10h-12V24.9z M10.4,14.9c-0.8,0-1.5,0.7-1.5,1.5v7
	c0,0.8,0.7,1.5,1.5,1.5s1.5-0.7,1.5-1.5v-7C11.9,15.6,11.2,14.9,10.4,14.9z M27.4,14.9c-0.8,0-1.5,0.7-1.5,1.5v7
	c0,0.8,0.7,1.5,1.5,1.5s1.5-0.7,1.5-1.5v-7C28.9,15.6,28.2,14.9,27.4,14.9z M22.4,9.1l1.3-1.3c0.2-0.2,0.2-0.5,0-0.7
	c-0.2-0.2-0.5-0.2-0.7,0l-1.5,1.5c-0.8-0.5-1.7-0.7-2.6-0.7c-1,0-1.9,0.2-2.7,0.6l-1.5-1.4c-0.1-0.2-0.5-0.2-0.7,0
	c-0.2,0.2-0.2,0.5,0,0.7l1.3,1.3c-1.5,1.1-2.4,2.9-2.4,4.8h12C24.9,11.9,23.9,10.2,22.4,9.1z M16.9,11.9h-1v-1h1V11.9z M21.9,11.9
	h-1v-1h1V11.9z"/>
</svg>
