<?xml version="1.0" encoding="utf-8"?>
<!-- Generator: Adobe Illustrator 15.0.0, SVG Export Plug-In . SVG Version: 6.00 Build 0)  -->
<!DOCTYPE svg PUBLIC "-//W3C//DTD SVG 1.1//EN" "http://www.w3.org/Graphics/SVG/1.1/DTD/svg11.dtd">
<svg version="1.1" xmlns="http://www.w3.org/2000/svg" xmlns:xlink="http://www.w3.org/1999/xlink" x="0px" y="0px" width="273px"
	 height="362.89px" viewBox="0 0 273 362.89" enable-background="new 0 0 273 362.89" xml:space="preserve">
<g id="图层_2">
	<path fill="none" stroke="#000000" stroke-width="2" stroke-linecap="round" stroke-linejoin="round" stroke-miterlimit="10" d="
		M103.324,188.302c0,0-1.906,33.285,12.685,53.509"/>
	<path fill="none" stroke="#000000" stroke-width="2" stroke-linecap="round" stroke-linejoin="round" stroke-miterlimit="10" d="
		M111.333,199.89c0,0-6,27.667,15.333,40.333"/>
	<path fill="none" stroke="#000000" stroke-width="2" stroke-linecap="round" stroke-linejoin="round" stroke-miterlimit="10" d="
		M56.667,270.89c0,0,26.333-5.667,8,11.333c0,0.333,15.333-9.667,12.667,3c0.333,1,10.333-12.333,16.333,7.667c0,0,0.333-21,11-9"/>
	<g>
		<path d="M35.461,197.24c0.511-0.056,0.969,0.023,1.373,0.238c0.403,0.215,0.638,0.615,0.702,1.202
			c0.063,0.586,0,1.256-0.192,2.007c-0.525,1.883-0.852,3.7-0.98,5.449c-0.129,1.75-0.139,3.12-0.03,4.113
			c0.032,0.301-0.052,0.782-0.254,1.443c-0.201,0.661-0.588,1.023-1.159,1.085c-0.181,0.02-0.408,0.029-0.682,0.028
			c-0.274,0-0.517,0.011-0.727,0.034c-0.753,0.082-1.348,0.352-1.784,0.811s-0.762,1.179-0.974,2.161
			c-0.213,0.982-0.516,1.495-0.905,1.537c-0.271,0.029-0.438-0.241-0.5-0.813c-0.02-0.181-0.001-0.7,0.059-1.56
			c0.058-0.857,0.073-1.415,0.046-1.671c-0.028-0.255-0.089-0.454-0.181-0.597c-0.091-0.142-0.156-0.394-0.195-0.755l-0.164-3.589
			c-0.256-2.346-1.034-5.016-2.335-8.009c-0.163-0.377-0.26-0.703-0.289-0.974c-0.069-0.631,0.204-0.981,0.821-1.049
			c0.616-0.067,1.167-0.043,1.651,0.071c0.484,0.115,0.862,0.157,1.133,0.127c0.271-0.03,1.052-0.19,2.344-0.484
			c1.293-0.292,2.1-0.495,2.423-0.606C34.984,197.33,35.25,197.263,35.461,197.24z M31.724,209.427
			c0.3-0.033,0.699-0.137,1.198-0.314c0.498-0.175,0.814-0.34,0.951-0.492c0.135-0.152,0.225-0.579,0.271-1.285l0.13-2.571
			c0.042-1.009,0.058-1.559,0.048-1.649c-0.042-0.391-0.289-0.561-0.74-0.512s-0.977,0.197-1.572,0.445
			c-0.598,0.248-0.951,0.423-1.062,0.527s-0.189,0.288-0.236,0.551s-0.03,0.772,0.052,1.524l0.195,2.626
			c0.05,0.451,0.122,0.763,0.217,0.936C31.269,209.385,31.453,209.457,31.724,209.427z M43.896,202.984
			c-0.039-0.36-0.104-0.589-0.188-0.687c-0.088-0.097-0.236-0.134-0.447-0.111c-0.21,0.023-0.73,0.141-1.559,0.353
			c-0.83,0.212-1.433,0.339-1.808,0.38c-0.377,0.041-0.674-0.033-0.893-0.223c-0.219-0.188-0.365-0.637-0.442-1.344
			c-0.077-0.707-0.032-1.396,0.139-2.07c0.17-0.673,0.405-1.026,0.707-1.059c0.119-0.013,0.231,0.036,0.335,0.146
			c0.104,0.111,0.327,0.147,0.674,0.109c0.346-0.038,0.795-0.247,1.348-0.626c0.552-0.38,1.003-0.635,1.354-0.765
			c0.352-0.13,0.628-0.525,0.83-1.186c0.387-1.199,0.715-1.813,0.986-1.843c0.511-0.056,0.886,0.588,1.124,1.932
			c0.068,0.357,0.146,0.578,0.231,0.659c0.084,0.082,0.396,0.147,0.935,0.195c0.537,0.049,1.043,0.214,1.515,0.497
			c0.473,0.284,0.724,0.56,0.753,0.831c0.069,0.632-0.723,1.464-2.375,2.497c-0.425,0.291-0.706,0.58-0.842,0.868
			s-0.192,0.676-0.17,1.16l0.021,2.281c0.03,0.271,0.103,0.461,0.222,0.569c0.118,0.109,0.356,0.198,0.715,0.265
			c0.356,0.068,0.664,0.095,0.922,0.082c0.257-0.012,0.535-0.036,0.837-0.068c0.3-0.033,0.464,0.063,0.488,0.289
			c0.024,0.226-0.092,0.558-0.348,0.997c-0.257,0.439-0.869,0.971-1.835,1.593c-0.426,0.291-0.676,0.576-0.751,0.859
			c-0.077,0.282-0.088,0.664-0.035,1.145l0.47,3.054c0.267,2.436,0.091,4.381-0.527,5.833c-0.617,1.452-1.453,2.236-2.506,2.351
			c-0.691,0.076-1.686-0.105-2.98-0.542c-1.297-0.437-2.338-0.917-3.125-1.44c-0.788-0.522-1.193-0.889-1.216-1.1
			c-0.023-0.21,0.075-0.351,0.296-0.42c0.221-0.07,0.49-0.114,0.808-0.134c0.317-0.019,0.536-0.036,0.656-0.049
			c0.661-0.072,1.725-0.371,3.19-0.896c1.464-0.525,2.337-0.895,2.618-1.107c0.28-0.214,0.455-0.499,0.522-0.857
			c0.068-0.356,0.093-1.106,0.074-2.245c-0.018-1.14-0.047-1.905-0.09-2.295s-0.147-0.578-0.313-0.56s-0.626,0.191-1.382,0.517
			c-0.756,0.327-1.354,0.635-1.794,0.926c-0.44,0.292-0.841,0.458-1.201,0.497c-0.692,0.076-1.032-0.253-1.021-0.985
			c-0.007-0.333-0.024-0.637-0.054-0.907c-0.029-0.271-0.119-0.535-0.27-0.792c-0.149-0.257-0.243-0.559-0.281-0.905
			c-0.037-0.346,0.035-0.65,0.221-0.915c0.183-0.264,0.366-0.405,0.547-0.425c0.18-0.02,0.325-0.013,0.436,0.021
			c0.11,0.034,0.301,0.036,0.571,0.006c0.271-0.029,0.847-0.259,1.729-0.69c0.882-0.431,1.424-0.688,1.628-0.771
			c0.555-0.212,0.803-0.59,0.744-1.131L43.896,202.984z M63.256,196.716c0.691-0.076,1.082,0.293,1.17,1.105
			c0.017,0.151-0.004,0.518-0.063,1.102c-0.058,0.585-0.147,1.089-0.268,1.514c-0.121,0.424-0.23,1.235-0.328,2.433
			c-0.098,1.197-0.117,2.067-0.058,2.609l0.217,1.574c0.099,0.629,0.208,1.484,0.326,2.567l0.314,3.299l0.371,2.562
			c0.036,0.332,0.051,0.885,0.044,1.662c-0.006,0.776-0.088,1.272-0.248,1.488c-0.159,0.216-0.374,0.337-0.645,0.367
			c-0.271,0.029-0.58-0.149-0.927-0.539c-0.347-0.388-0.828-0.616-1.444-0.687c-0.617-0.069-1.691-0.021-3.226,0.146
			s-2.588,0.344-3.161,0.528c-0.573,0.185-1.322,0.51-2.245,0.976c-0.201,0.113-0.467,0.188-0.798,0.223
			c-0.331,0.037-0.653-0.057-0.967-0.282c-0.313-0.224-0.486-0.479-0.518-0.765c-0.031-0.286-0.04-0.505-0.025-0.659
			c0.365-2.505,0.563-4.665,0.594-6.479c0.03-1.814-0.143-4.437-0.517-7.866c-0.105-0.962-0.22-1.658-0.342-2.086
			c-0.123-0.427-0.312-0.902-0.566-1.422c-0.255-0.52-0.396-0.916-0.426-1.186c-0.046-0.421,0.059-0.646,0.314-0.673
			c0.255-0.028,0.621,0.039,1.095,0.2c0.475,0.161,0.809,0.231,1.004,0.21c0.196-0.021,0.465-0.142,0.806-0.362
			c0.342-0.22,0.732-0.399,1.174-0.539c0.441-0.139,0.846-0.617,1.214-1.434c0.367-0.816,0.538-1.481,0.513-1.997
			c-0.026-0.514,0.156-0.793,0.548-0.835c0.661-0.072,1.33,0.889,2.004,2.885c0.196,0.679,0.554,1.036,1.076,1.07
			c0.521,0.035,0.938,0.096,1.253,0.183c0.313,0.088,0.545,0.123,0.696,0.106c0.149-0.017,0.429-0.175,0.838-0.479
			C62.465,196.933,62.865,196.759,63.256,196.716z M60.583,204.862c0.571-0.063,0.814-0.484,0.729-1.267l-0.132-2.04
			c-0.056-0.511-0.383-0.795-0.982-0.852c-0.601-0.056-1.336-0.036-2.209,0.059c-0.872,0.095-1.759,0.336-2.66,0.724
			c-0.901,0.388-1.43,0.704-1.586,0.949c-0.155,0.245-0.161,1.03-0.017,2.353c0.039,0.361,0.164,0.599,0.374,0.713
			c0.21,0.114,0.671,0.08,1.382-0.105c0.71-0.183,1.389-0.311,2.036-0.382c0.646-0.07,1.228-0.104,1.746-0.099L60.583,204.862z
			 M61.738,209.575c-0.026-0.514-0.2-0.853-0.522-1.016c-0.322-0.163-1.01-0.187-2.063-0.072s-2.076,0.364-3.069,0.746
			c-0.993,0.383-1.579,0.66-1.758,0.832c-0.18,0.172-0.285,0.67-0.316,1.495l-0.176,2.987c0.023,0.211,0.083,0.341,0.18,0.392
			c0.097,0.051,0.486,0.001,1.171-0.15c0.683-0.15,1.506-0.279,2.469-0.384l3.219-0.214c0.661-0.072,0.977-0.532,0.944-1.381
			L61.738,209.575z"/>
	</g>
	<path fill="none" stroke="#000000" stroke-width="2" stroke-linejoin="round" stroke-miterlimit="10" d="M209,107.224l5.667-4.333
		c0,0,3.667-7-4.333-6.333c0.333,0-8.495-7.333,1.919-12c-0.919,0,2.414-2.667,7.747,0c0.333-0.333,1-11.333,16-7
		c-0.333,0,8.333,5.324,0,14.329c0,0.005,6.928,5.338,3.631,15.338c0.036-0.667-9.62,11-15.792-2.333c0.161,0-2.172-2.333-4.505,2
		l-5.667,8"/>
</g>
<g id="图层_3">
	
		<path fill="#FFFFFF" stroke="#000000" stroke-width="2" stroke-linecap="round" stroke-linejoin="round" stroke-miterlimit="10" d="
		M55.333,257.557l14.333-28.333c0,0,2-4.667,6.333-1.667c0.469,0.703,35,17,35,17s4,1,1.667,5.667c-0.333,0.667-12.667,27-12.667,27
		s-3.667,2.333-5,0c-0.333-0.333-14.333-7-14.333-7l9.667-4v-13.818l12-9.516l-16,2.333c0,0-5.333,1.698-5.667,7.182
		c-0.333,0.484-1,6.484-1,6.484L68,264.224L55.333,257.557z"/>
</g>
<g id="图层_4">
	<polyline fill="#FFFFFF" stroke="#000000" stroke-width="2" stroke-miterlimit="10" points="57.939,252.406 73,247.224 
		74.877,261.08 	"/>
	
		<line fill="none" stroke="#000000" stroke-width="2" stroke-linecap="round" stroke-linejoin="round" stroke-miterlimit="10" x1="94.543" y1="249.067" x2="100.948" y2="275.199"/>
	<circle fill="#FFFFFF" stroke="#000000" stroke-width="2" stroke-miterlimit="10" cx="78.044" cy="238.723" r="4.167"/>
</g>
<g id="图层_6">
	
		<path fill="#FFFFFF" stroke="#000000" stroke-width="2" stroke-linecap="round" stroke-linejoin="round" stroke-miterlimit="10" d="
		M179,183.557h-37.667c0,0-15.667,4.334-15.333-26.333c-0.333,0,1.333-43.667,1.333-43.667s1.623-32.333,25.145-34.333
		c-0.145,0.667,44.855-10.333,46.855,32.667c0.333,0.333,3.333,35-2.667,51.333C197.333,163.89,192.667,181.89,179,183.557z"/>
	
		<path fill="#A6A6A6" stroke="#000000" stroke-width="2" stroke-linecap="round" stroke-linejoin="round" stroke-miterlimit="10" d="
		M132.167,228.224v-39.667c0,0,0.833-4.579,7.833-4.79c1.333-0.21,39-0.21,39-0.21s14.333,23.333,15.333,47
		C194.333,230.89,157,235.224,132.167,228.224z"/>
	
		<path fill="#A6A6A6" stroke="#000000" stroke-width="2" stroke-linecap="round" stroke-linejoin="round" stroke-miterlimit="10" d="
		M132.167,226.89c0,0-0.5,35.667,9.833,48.667c-1.667-2.333,6.667,10,11.333-3C153.667,272.89,165,257.224,165,257.224
		s7-13.334,14.333-0.667C180,255.89,193,273.89,193,273.89s6.42,8,7.377-4c0.623,0-0.377-30.333-6.043-39.333
		C194.333,230.557,156.334,238.89,132.167,226.89z"/>
</g>
<g id="图层_7">
	
		<path fill="#FFFFFF" stroke="#000000" stroke-width="2" stroke-linecap="round" stroke-linejoin="round" stroke-miterlimit="10" d="
		M138.908,270.388c0,0,9.719,2.805,14.092,0C152.333,270.557,150.482,286.886,138.908,270.388z"/>
	
		<path fill="#FFFFFF" stroke="#000000" stroke-width="2" stroke-linecap="round" stroke-linejoin="round" stroke-miterlimit="10" d="
		M191.667,270.388c0,0,4.411,1.168,8.872-1.832C200.539,267.556,199.334,283.886,191.667,270.388z"/>
</g>
<g id="图层_8">
	
		<path fill="#212121" stroke="#000000" stroke-width="2" stroke-linecap="round" stroke-linejoin="round" stroke-miterlimit="10" d="
		M122.333,114.557c0,0,2.667-35,27-39.333c0,0.333,25.667-4.667,37.667,4.333c0.333,0-23,6.333-26.333,35
		C160.333,114.224,122.333,114.557,122.333,114.557z"/>
</g>
<g id="图层_9">
	
		<path fill="#969696" stroke="#000000" stroke-width="2" stroke-linecap="round" stroke-linejoin="round" stroke-miterlimit="10" d="
		M187,79.557c0,0,17,9.667,12.667,35c0.667-1-9.334-3-8.667,5.333c-0.333,0.667-5.667-13.667-8-14c0,0,2.031-14.613-1.318-23.973
		C181.942,81.78,183.667,79.89,187,79.557z"/>
</g>
<g id="图层_10">
	
		<path fill="#FFFFFF" stroke="#000000" stroke-width="2" stroke-linecap="round" stroke-linejoin="round" stroke-miterlimit="10" d="
		M191,117.224c0,0,8-9.667,13,0c0-0.333,4.667,7.333-2.667,10.667c1.667-0.667-2.333,2-7.333,3.333"/>
</g>
<g id="图层_11">
	
		<path fill="#A3A3A3" stroke="#000000" stroke-width="2" stroke-linecap="round" stroke-linejoin="round" stroke-miterlimit="10" d="
		M128,195.224c0,0-5.667-9.667,0-22c0.333-0.333,9.333-6.667,14.333,0c0.667,0.667,10,12.962,10,12.962s4.667,4.038,0,6.038
		C153,192.557,134.667,200.891,128,195.224z"/>
	
		<path fill="#A3A3A3" stroke="#000000" stroke-width="2" stroke-linecap="round" stroke-linejoin="round" stroke-miterlimit="10" d="
		M189,177.224c0,0-2.333,5.931-8.333,6.465C180.333,183.89,188,196.89,189,203.557c-0.667,1,7.333-2.333,13-13.167
		C202.667,190.89,194.667,181.224,189,177.224z"/>
	<path fill="#FFFFFF" stroke="#000000" stroke-width="2" stroke-miterlimit="10" d="M136.5,197.122c0,0,3.167,19.769,19.5,31.102
		c0,0,12.333,9.333,5.333-6.667c0,0.333-9.017-19.065-11.342-28.033C149.75,193.63,146,196.354,136.5,197.122z"/>
	
		<path fill="#FFFFFF" stroke="#000000" stroke-width="2" stroke-linecap="round" stroke-linejoin="round" stroke-miterlimit="10" d="
		M194.276,202.057c0,0,16.514,11.054,23.294,13.035c-0.7-0.631,10.41,7.563,2.624-7.265c0.006,0.118-6.807-8.871-18.867-16.083
		c-0.954,1.94,0.005,3.17-7.125,8.885"/>
	<g>
		<path d="M164.866,186.171c0.84,0.824,1.354,1.62,1.774,2.441c0.207,0.41,0.384,0.822,0.525,1.245
			c0.161,0.417,0.247,0.852,0.251,1.317c0.005,0.927-0.316,1.996-0.109,2.903c0.189,0.91,0.726,1.697,1.445,2.375
			c0.73,0.674,1.377,1.359,1.879,2.109c0.543,0.731,1.108,1.437,1.499,2.242c0.748,1.637,1.314,3.38,1.364,5.636
			c0.004,0.134-0.102,0.246-0.235,0.249c-0.03,0.001-0.061-0.004-0.088-0.014c-2.139-0.761-3.618-2.14-4.737-3.729
			c-0.543-0.807-0.872-1.738-1.172-2.669c-0.345-0.91-0.494-1.911-0.515-2.943c-0.03-1.028-0.195-1.97-0.65-2.808
			c-0.44-0.841-1.352-1.54-1.878-2.4c-0.261-0.428-0.426-0.891-0.499-1.375c-0.092-0.48-0.132-0.974-0.124-1.475
			c0.029-1,0.205-2.041,0.871-3.073c0.075-0.116,0.229-0.149,0.346-0.074c0.014,0.009,0.027,0.019,0.039,0.03L164.866,186.171z"/>
	</g>
</g>
<g id="图层_12">
	<g>
		<path d="M134.111,129.733c1.311-1.434,3.052-2.3,4.894-2.8c1.85-0.48,3.874-0.536,5.825-0.044
			c1.948,0.478,3.789,1.536,5.135,2.989c1.345,1.455,2.228,3.243,2.416,5.161c-1.614-1.053-2.981-1.989-4.368-2.695
			c-1.375-0.717-2.733-1.214-4.159-1.578c-1.426-0.362-2.93-0.579-4.537-0.714C137.702,129.912,136.019,129.848,134.111,129.733z"/>
	</g>
	<g>
		<path d="M160,135.039c-0.397-1.919,0.569-3.996,2.074-5.384c1.525-1.414,3.523-2.172,5.44-2.427
			c1.933-0.26,3.833-0.059,5.602,0.441c1.769,0.517,3.431,1.311,4.884,2.554c-1.877,0.368-3.595,0.454-5.249,0.57
			c-1.649,0.103-3.219,0.203-4.704,0.397c-1.486,0.202-2.872,0.492-4.192,1.043C162.54,132.792,161.229,133.599,160,135.039z"/>
	</g>
	<g>
		<path d="M135.066,140.467c1.045-0.692,2.149-1.274,3.266-1.848c1.125-0.556,2.282-1.053,3.474-1.478
			c1.187-0.424,2.382-0.971,3.683-1.021c1.285-0.061,2.627,0.053,3.85,0.67c0.054,0.027,0.075,0.093,0.048,0.146
			c-0.013,0.025-0.035,0.043-0.059,0.053c-1.247,0.49-2.38,0.798-3.537,1.108c-1.142,0.324-2.358,0.334-3.548,0.583
			c-1.185,0.25-2.37,0.544-3.553,0.872c-1.188,0.313-2.362,0.695-3.534,1.093c-0.052,0.019-0.11-0.008-0.129-0.06
			C135.011,140.542,135.03,140.493,135.066,140.467z"/>
	</g>
	<g>
		<path d="M160.992,136.771c2.636-0.474,5.322-0.581,8.015-0.478c1.342,0.062,2.727,0.013,4.029,0.431
			c1.298,0.404,2.57,0.958,3.662,1.894c0.045,0.039,0.05,0.107,0.012,0.153c-0.02,0.022-0.047,0.035-0.074,0.038
			c-1.422,0.117-2.711,0.003-4.003-0.125c-1.287-0.116-2.518-0.569-3.803-0.8c-1.28-0.243-2.576-0.434-3.881-0.572
			c-1.304-0.17-2.62-0.271-3.94-0.341c-0.056-0.001-0.1-0.046-0.099-0.102C160.91,136.821,160.947,136.781,160.992,136.771z"/>
	</g>
	<g opacity="0.2">
		<linearGradient id="SVGID_1_" gradientUnits="userSpaceOnUse" x1="139" y1="140.3018" x2="149.3335" y2="140.3018">
			<stop  offset="0" style="stop-color:#FFFFFF"/>
			<stop  offset="0" style="stop-color:#FFFFFF"/>
			<stop  offset="1" style="stop-color:#000000"/>
		</linearGradient>
		<path fill="url(#SVGID_1_)" d="M139,142.89c0,0,5-2.687,10.333-5.177"/>
		<path d="M138.953,142.802c0.518-1.08,1.206-1.856,1.952-2.522c0.737-0.684,1.556-1.214,2.422-1.651
			c0.871-0.429,1.786-0.77,2.777-0.95c0.981-0.199,2.016-0.285,3.187-0.056l0.061,0.012c0.049,0.009,0.081,0.057,0.072,0.106
			c-0.006,0.028-0.024,0.051-0.048,0.063l-5.152,2.611l-5.177,2.563c-0.045,0.022-0.099,0.004-0.121-0.041
			c-0.013-0.026-0.012-0.055,0-0.079L138.953,142.802z"/>
	</g>
	<g opacity="0.2">
		<linearGradient id="SVGID_2_" gradientUnits="userSpaceOnUse" x1="161.667" y1="140.8208" x2="171.3335" y2="140.8208">
			<stop  offset="0" style="stop-color:#FFFFFF"/>
			<stop  offset="0" style="stop-color:#FFFFFF"/>
			<stop  offset="1" style="stop-color:#000000"/>
		</linearGradient>
		<path fill="url(#SVGID_2_)" d="M161.667,137.752c0,0,6.667,2.805,9.667,6.138"/>
		<path d="M161.706,137.66c1.17-0.266,2.222-0.171,3.214,0.056c1.002,0.213,1.932,0.605,2.795,1.125
			c0.859,0.524,1.663,1.17,2.32,2.001c0.663,0.806,1.235,1.785,1.372,2.982l0.007,0.059c0.006,0.05-0.03,0.095-0.081,0.101
			c-0.028,0.003-0.056-0.007-0.075-0.026c-1.351-1.341-2.926-2.442-4.574-3.404c-1.622-1.012-3.339-1.866-5.057-2.709
			c-0.045-0.022-0.064-0.077-0.042-0.123c0.012-0.025,0.035-0.042,0.061-0.048L161.706,137.66z"/>
	</g>
</g>
<g id="图层_13">
	<path fill="none" stroke="#000000" stroke-width="2" stroke-linecap="round" stroke-linejoin="round" stroke-miterlimit="10" d="
		M145.333,149.224c0,0-5,4.667-6.333,9"/>
	
		<line fill="none" stroke="#000000" stroke-width="2" stroke-linecap="round" stroke-linejoin="round" stroke-miterlimit="10" x1="162" y1="146.89" x2="171.667" y2="154.724"/>
	<g>
		<path d="M145.333,153.724l2.896-1.172c0.734,0.235,1.501,0.368,2.266,0.504c1.534,0.255,3.096,0.378,4.655,0.371
			c1.56-0.007,3.12-0.148,4.658-0.415c0.769-0.135,1.533-0.298,2.289-0.496c0.911,0.39,1.851,0.724,2.903,1.207
			c-0.527,1.032-1.188,1.851-1.896,2.664c-0.861,0.226-1.734,0.412-2.612,0.566c-1.756,0.304-3.539,0.465-5.323,0.473
			c-1.784,0.008-3.568-0.131-5.333-0.425c-0.885-0.138-1.755-0.352-2.638-0.543C146.484,155.651,145.797,154.819,145.333,153.724z"
			/>
	</g>
	<path fill="none" stroke="#000000" stroke-width="2" stroke-linecap="round" stroke-linejoin="round" stroke-miterlimit="10" d="
		M162,174.557c0,0-8,3.334-13.667,1.667"/>
</g>
<g id="图层_14">
	<path fill="#A4A4A4" stroke="#000000" stroke-width="2" stroke-miterlimit="10" d="M148.333,168.224c0,0-4.667-2,0-4.667H162
		c0,0,6,2.667,0,4.667C162.333,168.557,148.333,168.224,148.333,168.224z"/>
</g>
</svg>
