<?xml version="1.0" encoding="utf-8"?>
<!-- Generator: Adobe Illustrator 22.0.0, SVG Export Plug-In . SVG Version: 6.00 Build 0)  -->
<svg version="1.1" id="图层_1" xmlns="http://www.w3.org/2000/svg" xmlns:xlink="http://www.w3.org/1999/xlink" x="0px" y="0px"
	 viewBox="0 0 124.4 117.8" style="enable-background:new 0 0 124.4 117.8;" xml:space="preserve">
<style type="text/css">
	.st0{fill:#231815;}
</style>
<path class="st0" d="M93,76.1c-0.1,0.3-1.6,5.6-5.4,11.2c-3.3,4.8-6.6,9.5-11.9,9.6c-5.2,0.1-6.9-3.1-12.9-3.1c-6,0-7.9,3-12.8,3.2
	c-5.1,0.2-9-5.1-12.3-9.9c-6.7-9.7-11.9-27.4-4.9-39.2c3.4-5.9,9.5-9.7,16.1-9.8c5-0.1,9.7,3.4,12.8,3.4c3.1,0,8.9-4.2,15-3.6
	c2.6,0.1,9.7,1.1,14.3,7.7c-0.4,0.2-8.5,5.1-8.4,14.8C82.7,72.2,92.9,76,93,76.1 M72.7,31.4c2.7-3.4,4.5-8,4.1-12.5
	c-3.9,0.2-8.7,2.6-11.5,5.9c-2.5,2.9-4.8,7.6-4.1,12.1C65.5,37.2,70,34.7,72.7,31.4"/>
</svg>
